<svg xmlns="http://www.w3.org/2000/svg" width="19.76" height="19.796" viewBox="0 0 19.76 19.796">
  <path id="Icon_feather-phone" data-name="Icon feather-phone" d="M20.926,16.322V19a1.786,1.786,0,0,1-1.947,1.786,17.671,17.671,0,0,1-7.706-2.741,17.412,17.412,0,0,1-5.358-5.358A17.671,17.671,0,0,1,3.175,4.947,1.786,1.786,0,0,1,4.952,3H7.631A1.786,1.786,0,0,1,9.417,4.536a11.465,11.465,0,0,0,.625,2.509,1.786,1.786,0,0,1-.4,1.884L8.506,10.063a14.287,14.287,0,0,0,5.358,5.358L15,14.287a1.786,1.786,0,0,1,1.884-.4,11.465,11.465,0,0,0,2.509.625A1.786,1.786,0,0,1,20.926,16.322Z" transform="translate(-2.167 -2)" fill="none" stroke="#000" stroke-linecap="round" stroke-linejoin="round" stroke-width="2"/>
</svg>
